<?xml version="1.0" encoding="UTF-8"?>
<svg xmlns="http://www.w3.org/2000/svg" xmlns:xlink="http://www.w3.org/1999/xlink" viewBox="0 0 907.09 510.24">
  <defs>
    <style>
      .cls-1 {
        fill: url(#radial-gradient);
      }

      .cls-1, .cls-2, .cls-3, .cls-4, .cls-5, .cls-6, .cls-7, .cls-8 {
        stroke-width: 0px;
      }

      .cls-9 {
        fill: none;
        stroke: #00eef4;
        stroke-miterlimit: 10;
        stroke-width: 2.31px;
      }

      .cls-2, .cls-3 {
        mix-blend-mode: overlay;
      }

      .cls-2, .cls-8 {
        fill: #fff;
      }

      .cls-3 {
        fill: url(#linear-gradient);
      }

      .cls-10 {
        isolation: isolate;
      }

      .cls-4 {
        fill: #3b0a99;
      }

      .cls-5 {
        fill: #376ff5;
      }

      .cls-6 {
        fill: #2648d6;
      }

      .cls-7 {
        fill: #9100dd;
      }
    </style>
    <radialGradient id="radial-gradient" cx="453.54" cy="-101.67" fx="453.54" fy="-101.67" r="680" gradientUnits="userSpaceOnUse">
      <stop offset="0" stop-color="#1a1a1a"/>
      <stop offset="1" stop-color="#000"/>
    </radialGradient>
    <linearGradient id="linear-gradient" x1="395.35" y1="-64.02" x2="544.17" y2="86.58" gradientUnits="userSpaceOnUse">
      <stop offset="0" stop-color="#606974"/>
      <stop offset=".02" stop-color="#5c6570"/>
      <stop offset=".11" stop-color="#545c66"/>
      <stop offset=".15" stop-color="#646c76"/>
      <stop offset=".23" stop-color="#8a929c"/>
      <stop offset=".27" stop-color="#99a1ab"/>
      <stop offset=".3" stop-color="#bac0c7"/>
      <stop offset=".33" stop-color="#d6d9de"/>
      <stop offset=".36" stop-color="#eaecee"/>
      <stop offset=".39" stop-color="#f6f7f8"/>
      <stop offset=".42" stop-color="#fbfbfc"/>
      <stop offset=".45" stop-color="#f7f7f9"/>
      <stop offset=".48" stop-color="#edeef0"/>
      <stop offset=".51" stop-color="#dbdee2"/>
      <stop offset=".52" stop-color="#d1d5da"/>
      <stop offset=".67" stop-color="#919aa4"/>
      <stop offset=".72" stop-color="#8f97a1"/>
      <stop offset=".74" stop-color="#88909a"/>
      <stop offset=".75" stop-color="#7c848e"/>
      <stop offset=".77" stop-color="#6b737c"/>
      <stop offset=".78" stop-color="#555c65"/>
      <stop offset=".79" stop-color="#40474f"/>
      <stop offset=".85" stop-color="#040405"/>
      <stop offset=".92" stop-color="#4d555e"/>
      <stop offset="1" stop-color="#d4d8dd"/>
    </linearGradient>
  </defs>
  <g class="cls-10">
    <g id="Layer_1" data-name="Layer 1">
      <rect class="cls-8" x="906.76" y="50.96" width="77.36" height="431.48"/>
      <rect class="cls-1" x="0" width="907.09" height="510.2"/>
      <g>
        <g>
          <g>
            <polygon class="cls-5" points="832.2 472.95 839.13 466.02 859.19 466.02 890.54 435.92 890.54 415.65 885.88 415.65 858.63 441.65 858.63 455.74 854.39 459.98 831.68 459.98 818.71 472.95 832.2 472.95"/>
            <polygon class="cls-7" points="784.55 487.92 782.05 490.41 848.7 490.41 846.2 487.92 784.55 487.92"/>
          </g>
          <polygon class="cls-7" points="856.83 448.72 847.32 458.23 853.68 458.23 856.83 455.08 856.83 448.72"/>
          <polygon class="cls-7" points="859.49 490.41 863.5 490.41 890.73 462.98 890.73 458.97 859.49 490.41"/>
        </g>
        <path class="cls-4" d="m860.16,468.35h-20.06l-6.93,6.93h-16.79l-4.31,4.31h-37.03l-6.93,6.93v3.89h10.65l4.83-4.83h63.58l4.83,4.83h5.01l33.83-33.67v-18.9l-30.67,30.51Zm-23.52,7.12l4.57-4.57h2.65l-4.57,4.57h-2.65Zm7.96,0h-2.65l4.57-4.57h2.65l-4.57,4.57Zm5.31,0h-2.65l4.57-4.57h2.65l-4.57,4.57Zm5.31,0h-2.65l4.57-4.57h2.65l-4.57,4.57Zm5.31,0h-2.65s4.57-4.57,4.57-4.57h2.65l-4.57,4.57Z"/>
      </g>
      <g>
        <polygon class="cls-2" points="581.13 0 553.83 27.29 569.68 27.29 596.98 0 581.13 0"/>
        <polygon class="cls-2" points="549.43 0 522.13 27.29 537.98 27.29 565.28 0 549.43 0"/>
        <polygon class="cls-2" points="517.73 0 490.43 27.29 506.28 27.29 533.58 0 517.73 0"/>
        <polygon class="cls-2" points="486.03 0 458.73 27.29 474.58 27.29 501.88 0 486.03 0"/>
        <path class="cls-2" d="m454.33,0h-44.94l-94.96,94.96h-45.03v-30.83L333.52,0h-37.16l-78.53,78.53v36.97l-28.47,28.47v32.78L0,366.11v56.6L282.81,139.9h14.69L0,437.4v16.15L313.65,139.9h.79l112.61-112.61h15.84L470.18,0h-15.85ZM148.87,259.88c-3.83,0-6.93-3.1-6.93-6.93s3.1-6.93,6.93-6.93,6.93,3.1,6.93,6.93-3.1,6.93-6.93,6.93Zm17.73-17.73c-3.83,0-6.93-3.1-6.93-6.93s3.1-6.93,6.93-6.93,6.93,3.1,6.93,6.93-3.1,6.93-6.93,6.93Zm17.73-17.73c-3.83,0-6.93-3.1-6.93-6.93s3.1-6.93,6.93-6.93,6.93,3.1,6.93,6.93-3.1,6.93-6.93,6.93Zm17.73-17.73c-3.83,0-6.93-3.1-6.93-6.93s3.1-6.93,6.93-6.93,6.93,3.1,6.93,6.93-3.1,6.93-6.93,6.93Z"/>
        <polygon class="cls-2" points="187.05 146.28 147.77 185.56 112.04 185.56 0 297.6 0 362.84 187.05 175.8 187.05 146.28"/>
        <polygon class="cls-2" points="105.25 146.99 .79 251.46 .79 265.11 265.89 0 252.25 0 195.23 57.01 195.23 44.78 240.01 0 183.22 0 153.07 30.15 153.07 42.91 110.44 85.53 64.07 85.53 34.33 115.28 34.33 126.7 0 161.02 0 213.03 66.04 146.99 105.25 146.99"/>
        <polygon class="cls-2" points="52.06 85.42 0 137.49 0 145.52 60.09 85.42 52.06 85.42"/>
      </g>
      <polygon class="cls-6" points="290.01 -.27 338.01 50.58 576.58 50.58 628.93 -.27 290.01 -.27"/>
      <polygon class="cls-3" points="290.01 -.27 338.01 50.58 576.58 50.58 628.93 -.27 290.01 -.27"/>
      <g>
        <polygon class="cls-2" points="325.95 510.58 353.26 483.29 337.41 483.29 310.1 510.58 325.95 510.58"/>
        <polygon class="cls-2" points="357.66 510.58 384.96 483.29 369.11 483.29 341.8 510.58 357.66 510.58"/>
        <polygon class="cls-2" points="389.36 510.58 416.66 483.29 400.81 483.29 373.51 510.58 389.36 510.58"/>
        <polygon class="cls-2" points="421.06 510.58 448.36 483.29 432.51 483.29 405.21 510.58 421.06 510.58"/>
        <path class="cls-2" d="m452.76,510.58h44.94l94.96-94.96h45.03v30.83l-64.12,64.12h37.16l78.53-78.53v-36.97l28.47-28.47v-32.78l189.36-189.36v-56.6l-282.81,282.81h-14.69L907.09,73.18v-16.15l-313.65,313.65h-.79l-112.61,112.61h-15.84l-27.3,27.29h15.85Zm305.45-259.88c3.83,0,6.93,3.1,6.93,6.93s-3.1,6.93-6.93,6.93-6.93-3.1-6.93-6.93,3.1-6.93,6.93-6.93Zm-17.73,17.73c3.83,0,6.93,3.1,6.93,6.93s-3.1,6.93-6.93,6.93-6.93-3.1-6.93-6.93,3.1-6.93,6.93-6.93Zm-17.73,17.73c3.83,0,6.93,3.1,6.93,6.93s-3.1,6.93-6.93,6.93-6.93-3.1-6.93-6.93,3.1-6.93,6.93-6.93Zm-17.73,17.73c3.83,0,6.93,3.1,6.93,6.93s-3.1,6.93-6.93,6.93-6.93-3.1-6.93-6.93,3.1-6.93,6.93-6.93Z"/>
        <polygon class="cls-2" points="720.04 364.3 759.32 325.02 795.05 325.02 907.09 212.98 907.09 147.74 720.04 334.79 720.04 364.3"/>
        <polygon class="cls-2" points="801.83 363.59 906.3 259.12 906.3 245.47 641.19 510.58 654.84 510.58 711.85 453.57 711.85 465.81 667.08 510.58 723.87 510.58 754.02 480.43 754.02 467.68 796.65 425.05 843.01 425.05 872.76 395.3 872.76 383.89 907.09 349.56 907.09 297.55 841.05 363.59 801.83 363.59"/>
        <polygon class="cls-2" points="855.02 425.16 907.09 373.09 907.09 365.06 846.99 425.16 855.02 425.16"/>
      </g>
      <g>
        <polygon class="cls-7" points="897.59 204.31 887.26 214.64 887.26 265.36 891.02 269.12 891.02 298.46 897.59 305.03 897.59 204.31"/>
        <g>
          <polygon class="cls-7" points="22.23 483.14 22.23 499.64 43.52 499.64 26.67 482.79 26.67 478.7 22.23 483.14"/>
          <polygon class="cls-8" points="19.43 481.98 26.67 474.74 26.67 457.85 16.61 447.79 16.61 385.56 11.85 380.8 11.85 499.64 19.43 499.64 19.43 481.98"/>
          <path class="cls-7" d="m19.41,384.4v62.23l7.26,7.26v-51.84l13.14-13.14v-55.13l-27.96-27.96v71.02s7.55,7.55,7.55,7.55Zm5.41-58.88l9.81,9.81v5.7s-9.81-9.81-9.81-9.81v-5.7Zm0,11.39l9.81,9.81v5.7l-9.81-9.81v-5.7Zm0,11.39l9.81,9.81v5.7l-9.81-9.81v-5.7Zm0,11.39l9.81,9.81v5.7s-9.81-9.81-9.81-9.81v-5.7Zm0,11.39l9.81,9.81v5.7l-9.81-9.81v-5.7Z"/>
        </g>
      </g>
      <polygon class="cls-9" points="13.46 28.97 29.5 12.17 285.44 12.17 303.72 31.91 330.45 58.64 584.9 58.64 612.4 31.15 632.23 11.41 869.96 11.41 894.78 36.23 894.78 195.57 880.84 209.51 880.84 299.05 895.83 314.04 895.83 467.37 866.66 496.54 61.58 496.54 38.4 473.36 38.4 405.51 49.42 394.5 49.42 327.61 11.39 289.59 13.46 28.97"/>
      <g>
        <polygon class="cls-7" points="19.45 45.59 21.78 43.27 21.78 30.08 19.73 28.03 17.48 30.28 17.48 63.38 19.45 61.41 19.45 45.59"/>
        <polygon class="cls-8" points="28.72 22.46 36.47 22.46 41.55 17.38 30.37 17.38 27.01 20.75 28.72 22.46"/>
        <polygon class="cls-8" points="64.39 24.77 46.77 24.77 42.19 29.35 49.75 29.35 50.91 30.51 64.69 30.51 67.41 27.79 64.39 24.77"/>
        <polygon class="cls-5" points="45.98 22.88 65.17 22.88 68.75 26.45 75.93 19.26 74.05 17.38 44.23 17.38 37.26 24.36 27.94 24.36 25.67 22.09 21.07 26.69 23.67 29.29 23.67 44.05 21.35 46.38 21.35 59.52 27.54 53.32 27.54 44.56 26.31 43.33 26.31 36.21 28.44 34.09 28.44 30.74 29.82 29.35 39.5 29.35 45.98 22.88"/>
      </g>
    </g>
  </g>
</svg>